<mxfile host="Electron" agent="Mozilla/5.0 (Windows NT 10.0; Win64; x64) AppleWebKit/537.36 (KHTML, like Gecko) draw.io/24.7.17 Chrome/128.0.6613.36 Electron/32.0.1 Safari/537.36" scale="1" border="0" version="24.7.17">
  <diagram name="Seite-1" id="ApvzepRqhKwXWXbhNvn7">
    <mxGraphModel dx="1434" dy="957" grid="1" gridSize="10" guides="1" tooltips="1" connect="1" arrows="1" fold="1" page="1" pageScale="1" pageWidth="1169" pageHeight="827" math="0" shadow="0">
      <root>
        <mxCell id="0" />
        <mxCell id="1" parent="0" />
        <mxCell id="2" value="" style="html=1;shadow=0;dashed=0;shape=mxgraph.bootstrap.rrect;rSize=5;strokeColor=#0071D5;html=1;whiteSpace=wrap;fillColor=#0085FC;fontColor=#ffffff;verticalAlign=bottom;align=left;spacing=20;spacingBottom=0;fontSize=14;" parent="1" vertex="1">
          <mxGeometry x="80" y="290" width="510" height="270" as="geometry" />
        </mxCell>
        <mxCell id="3" value="Monitoring Server" style="html=1;shadow=0;dashed=0;shape=mxgraph.bootstrap.topButton;rSize=5;perimeter=none;whiteSpace=wrap;fillColor=#0081F4;strokeColor=#0071D5;fontColor=#ffffff;resizeWidth=1;fontSize=18;align=left;spacing=20;" parent="2" vertex="1">
          <mxGeometry width="509.99999999999994" height="50" relative="1" as="geometry" />
        </mxCell>
        <mxCell id="5" value="&lt;font style=&quot;font-size: 16px;&quot;&gt;Naemon&lt;/font&gt;" style="rounded=1;whiteSpace=wrap;html=1;fillColor=#0050ef;fontColor=#ffffff;strokeColor=#001DBC;fontSize=16;" parent="2" vertex="1">
          <mxGeometry x="41.35135135135135" y="116" width="120" height="60" as="geometry" />
        </mxCell>
        <mxCell id="_90JMTWRTHvx8ZVtXpiR-26" style="edgeStyle=orthogonalEdgeStyle;rounded=0;orthogonalLoop=1;jettySize=auto;html=1;entryX=1;entryY=0.5;entryDx=0;entryDy=0;strokeColor=#1D0101;" parent="2" source="_90JMTWRTHvx8ZVtXpiR-20" target="5" edge="1">
          <mxGeometry relative="1" as="geometry" />
        </mxCell>
        <mxCell id="_90JMTWRTHvx8ZVtXpiR-20" value="External&lt;div style=&quot;font-size: 16px;&quot;&gt;Command&lt;/div&gt;&lt;div style=&quot;font-size: 16px;&quot;&gt;File&lt;/div&gt;" style="shape=note;whiteSpace=wrap;html=1;backgroundOutline=1;darkOpacity=0.05;fillColor=#76608a;fontColor=#ffffff;strokeColor=#432D57;fontSize=16;" parent="2" vertex="1">
          <mxGeometry x="220" y="96" width="80" height="100" as="geometry" />
        </mxCell>
        <mxCell id="_90JMTWRTHvx8ZVtXpiR-21" value="&lt;font style=&quot;font-size: 16px;&quot;&gt;NSCA&lt;/font&gt;" style="rounded=1;whiteSpace=wrap;html=1;fillColor=#0050ef;fontColor=#ffffff;strokeColor=#001DBC;fontSize=16;" parent="2" vertex="1">
          <mxGeometry x="350.00135135135133" y="116" width="120" height="60" as="geometry" />
        </mxCell>
        <mxCell id="_90JMTWRTHvx8ZVtXpiR-24" style="edgeStyle=orthogonalEdgeStyle;rounded=0;orthogonalLoop=1;jettySize=auto;html=1;entryX=1;entryY=0.5;entryDx=0;entryDy=0;entryPerimeter=0;strokeColor=#1D0101;" parent="2" source="_90JMTWRTHvx8ZVtXpiR-21" target="_90JMTWRTHvx8ZVtXpiR-20" edge="1">
          <mxGeometry relative="1" as="geometry" />
        </mxCell>
        <mxCell id="7" value="&lt;br style=&quot;font-size: 14px&quot;&gt;" style="html=1;shadow=0;dashed=0;shape=mxgraph.bootstrap.rrect;rSize=5;strokeColor=#D89F20;html=1;whiteSpace=wrap;fillColor=#FFBC26;fontColor=#ffffff;verticalAlign=bottom;align=left;spacing=20;spacingBottom=0;fontSize=14;" parent="1" vertex="1">
          <mxGeometry x="670" y="290" width="370" height="270" as="geometry" />
        </mxCell>
        <mxCell id="8" value="Remote Linux/Unix Machine" style="html=1;shadow=0;dashed=0;shape=mxgraph.bootstrap.topButton;rSize=5;perimeter=none;whiteSpace=wrap;fillColor=#F7B625;strokeColor=#D89F20;fontColor=#ffffff;resizeWidth=1;fontSize=18;align=left;spacing=20;" parent="7" vertex="1">
          <mxGeometry width="370" height="50" relative="1" as="geometry" />
        </mxCell>
        <mxCell id="14" value="&lt;font style=&quot;font-size: 16px;&quot;&gt;send_nsca&lt;/font&gt;" style="rounded=1;whiteSpace=wrap;html=1;fillColor=#fa6800;fontColor=#000000;strokeColor=#C73500;fontSize=16;" parent="7" vertex="1">
          <mxGeometry x="30" y="116" width="120" height="60" as="geometry" />
        </mxCell>
        <mxCell id="_90JMTWRTHvx8ZVtXpiR-22" style="edgeStyle=orthogonalEdgeStyle;rounded=0;orthogonalLoop=1;jettySize=auto;html=1;entryX=1;entryY=0.5;entryDx=0;entryDy=0;strokeColor=#1D0101;" parent="7" source="17" target="14" edge="1">
          <mxGeometry relative="1" as="geometry" />
        </mxCell>
        <mxCell id="17" value="Program /&lt;div style=&quot;font-size: 16px;&quot;&gt;Script&lt;/div&gt;" style="rounded=1;whiteSpace=wrap;html=1;fillColor=#f0a30a;fontColor=#000000;strokeColor=#BD7000;fontSize=16;" parent="7" vertex="1">
          <mxGeometry x="220" y="116" width="120" height="60" as="geometry" />
        </mxCell>
        <mxCell id="_90JMTWRTHvx8ZVtXpiR-23" style="edgeStyle=orthogonalEdgeStyle;rounded=0;orthogonalLoop=1;jettySize=auto;html=1;entryX=1;entryY=0.5;entryDx=0;entryDy=0;strokeColor=#1D0101;" parent="1" source="14" target="_90JMTWRTHvx8ZVtXpiR-21" edge="1">
          <mxGeometry relative="1" as="geometry" />
        </mxCell>
      </root>
    </mxGraphModel>
  </diagram>
</mxfile>
